<svg xmlns="http://www.w3.org/2000/svg" viewBox="0 0 71 70" width="24" height="24">
  <path d="M60.1924 10.1827C53.6257 3.61605 44.895 0 35.6069 0C30.0859 0 24.7606 1.27867 19.9684 3.6962C21.3888 4.7456 22.9246 5.81364 24.4438 6.75307C27.948 5.35698 31.7206 4.62445 35.6069 4.62445C43.6592 4.62445 51.2286 7.7596 56.9211 13.454C61.0088 17.5416 63.7767 22.5947 65.0144 28.1008C62.7776 28.1698 58.1569 28.0654 52.2967 26.5631C48.5874 25.4 45.3908 24.2536 42.962 23.1614C21.3403 13.4372 11.7615 2.47345 11.7615 2.47345C10.9805 3.1277 13.8044 10.2144 19.2303 16.7475C20.0393 17.7205 20.8109 18.6003 21.5696 19.413C9.74469 14.3915 4.00747 9.50425 4.00747 9.50425C3.16124 10.3188 7.00469 16.8109 13.2098 22.3822C16.0653 24.947 18.4791 26.7085 21.1464 28.1884C7.08671 23.9349 0.0894596 18.8408 0.0894596 18.8408C-0.678485 18.9694 3.54708 25.8715 10.1026 30.9117C15.8938 35.3646 19.864 37.0123 27.1763 39.0962C11.4465 36.4699 3.32713 31.7821 3.32713 31.7821C2.6151 32.1363 7.37935 38.3786 14.3542 42.6601C20.2033 46.2519 24.2014 47.5119 30.9899 48.7123C19.9554 48.4495 13.9796 46.4998 13.9796 46.4998C13.7037 46.6117 15.8603 49.6778 17.8398 51.2063C20.1902 53.1355 25.1726 56.293 29.3478 57.663C35.8884 59.8065 42.6452 61.102 52.4924 59.4356C52.6788 59.4039 52.8782 59.3704 53.087 59.3331C48.0171 62.9566 41.963 64.9119 35.6088 64.9119C27.5565 64.9119 19.9871 61.7767 14.2946 56.0824C10.576 52.3638 7.94971 47.8456 6.57412 42.9155C4.6263 41.0907 2.70271 39.1652 0.924507 37.195C1.4986 45.5679 5.03264 53.361 11.0234 59.3517C17.59 65.9184 26.3207 69.5344 35.6088 69.5344C44.8968 69.5344 53.6275 65.9184 60.1942 59.3517C66.7609 52.785 70.3769 44.0543 70.3769 34.7663C70.3769 25.4783 66.7609 16.7475 60.1942 10.1809L60.1924 10.1827Z" fill="#E8C228"/>
</svg>
